<svg width="22" height="24" viewBox="0 0 22 24" fill="none" xmlns="http://www.w3.org/2000/svg">
<path d="M17.8471 12C18.722 11.8966 19.4708 11.7281 19.9281 11.4641C21.8413 10.3595 22.4968 7.91316 21.3922 5.99999C20.2877 4.08682 17.8413 3.43132 15.9281 4.53589C15.4708 4.79992 14.9505 5.36422 14.4235 6.07014C14.7714 5.26078 14.9999 4.52806 14.9999 4C14.9999 1.79086 13.2091 0 10.9999 0C8.79078 0 6.99992 1.79086 6.99992 4C6.99992 4.52806 7.22847 5.26078 7.57631 6.07014C7.0493 5.36422 6.52903 4.79992 6.07171 4.53589C4.15854 3.43132 1.71218 4.08682 0.607612 5.99999C-0.496958 7.91316 0.158543 10.3595 2.07171 11.4641C2.52903 11.7281 3.27787 11.8966 4.15273 12C3.27787 12.1034 2.52903 12.2719 2.07171 12.5359C0.158543 13.6405 -0.496958 16.0868 0.607611 18C1.71218 19.9132 4.15854 20.5687 6.07171 19.4641C6.52904 19.2001 7.04932 18.6358 7.57633 17.9298C7.22848 18.7392 6.99992 19.4719 6.99992 20C6.99992 22.2091 8.79078 24 10.9999 24C13.2091 24 14.9999 22.2091 14.9999 20C14.9999 19.4719 14.7714 18.7392 14.4235 17.9298C14.9505 18.6357 15.4708 19.2001 15.9281 19.4641C17.8413 20.5687 20.2877 19.9132 21.3922 18C22.4968 16.0868 21.8413 13.6405 19.9281 12.5359C19.4708 12.2719 18.722 12.1034 17.8471 12ZM12.9999 4C12.9997 4.00451 12.9979 4.03652 12.9862 4.1017C12.9726 4.17804 12.9487 4.28044 12.9102 4.41072C12.8322 4.67443 12.71 4.9993 12.5438 5.37752C12.2111 6.13487 11.7519 6.99398 11.2699 7.82487C11.1798 7.98031 11.0895 8.13357 10.9999 8.2837C10.9104 8.13357 10.8201 7.98031 10.7299 7.82487C10.2479 6.99398 9.78873 6.13487 9.45599 5.37752C9.28983 4.9993 9.16765 4.67443 9.08965 4.41072C9.05111 4.28044 9.02724 4.17804 9.01358 4.1017C9.00192 4.03652 9.00017 4.0035 8.99992 3.99883C8.99992 2.89426 9.89535 2 10.9999 2C12.1045 2 12.9999 2.89543 12.9999 4ZM2.33966 6.99999C2.89195 6.0434 4.11461 5.7154 5.07119 6.26768C5.07086 6.26747 5.07119 6.26769 5.07119 6.26768C5.07512 6.27024 5.10235 6.28795 5.15295 6.33062C5.21224 6.38062 5.28898 6.4525 5.38254 6.55101C5.57192 6.75042 5.79218 7.01866 6.03664 7.35167C6.52616 8.0185 7.04058 8.84572 7.51915 9.67859C7.60868 9.8344 7.69628 9.98921 7.78151 10.1418C7.60671 10.1443 7.42884 10.1459 7.24914 10.1463C6.28857 10.1482 5.31497 10.1163 4.49271 10.0258C4.08209 9.98062 3.73966 9.92399 3.47227 9.85969C3.34018 9.82792 3.23956 9.7974 3.16662 9.77105C3.1044 9.74858 3.07579 9.7341 3.07171 9.73204C3.07136 9.73186 3.07172 9.73204 3.07171 9.73204C2.11513 9.17976 1.78738 7.95657 2.33966 6.99999ZM5.07171 17.732C4.11513 18.2843 2.89195 17.9566 2.33966 17C1.78738 16.0434 2.11411 14.8208 3.0707 14.2685C3.07493 14.2664 3.10443 14.2514 3.16662 14.2289C3.23956 14.2026 3.34018 14.1721 3.47227 14.1403C3.73966 14.076 4.08209 14.0194 4.49271 13.9742C5.31497 13.8836 6.28857 13.8517 7.24914 13.8537C7.42884 13.8541 7.60671 13.8556 7.78151 13.8581C7.69627 14.0108 7.60868 14.1656 7.51915 14.3214C7.04058 15.1543 6.52616 15.9815 6.03664 16.6483C5.79218 16.9813 5.57192 17.2496 5.38254 17.449C5.28898 17.5475 5.21224 17.6194 5.15295 17.6694C5.10235 17.712 5.07551 17.7296 5.07171 17.732C5.07171 17.732 5.07139 17.7323 5.07171 17.732ZM12.9999 20C12.9999 21.1046 12.1045 22 10.9999 22C9.89535 22 8.99992 21.1057 8.99992 20.0012C9.00017 19.9965 9.00192 19.9635 9.01358 19.8983C9.02724 19.822 9.05111 19.7196 9.08965 19.5893C9.16765 19.3256 9.28983 19.0007 9.45599 18.6225C9.78873 17.8651 10.2479 17.006 10.7299 16.1751C10.8201 16.0197 10.9104 15.8664 10.9999 15.7163C11.0895 15.8664 11.1798 16.0197 11.2699 16.1751C11.7519 17.006 12.2111 17.8651 12.5438 18.6225C12.71 19.0007 12.8322 19.3256 12.9102 19.5893C12.9487 19.7196 12.9726 19.822 12.9862 19.8983C12.9979 19.9635 12.9997 19.9955 12.9999 20ZM19.6602 6.99999C20.2125 7.95658 19.8847 9.17976 18.9281 9.73204C18.9281 9.73204 18.9285 9.73187 18.9281 9.73204C18.9241 9.7341 18.8954 9.74858 18.8332 9.77106C18.7603 9.7974 18.6597 9.82792 18.5276 9.85969C18.2602 9.92399 17.9177 9.98062 17.5071 10.0258C16.6849 10.1163 15.7113 10.1482 14.7507 10.1463C14.571 10.1459 14.3931 10.1443 14.2183 10.1418C14.3036 9.98921 14.3912 9.8344 14.4807 9.67859C14.9593 8.84572 15.4737 8.0185 15.9632 7.35167C16.2077 7.01866 16.4279 6.75042 16.6173 6.55101C16.7109 6.4525 16.7876 6.38062 16.8469 6.33062C16.8975 6.28793 16.9247 6.27022 16.9286 6.26768C17.8852 5.7154 19.1079 6.04341 19.6602 6.99999ZM16.9281 17.732C16.9243 17.7296 16.8975 17.712 16.8469 17.6694C16.7876 17.6194 16.7108 17.5475 16.6173 17.449C16.4279 17.2496 16.2077 16.9813 15.9632 16.6483C15.4737 15.9815 14.9593 15.1543 14.4807 14.3214C14.3912 14.1656 14.3036 14.0108 14.2183 13.8581C14.3931 13.8556 14.571 13.8541 14.7507 13.8537C15.7113 13.8517 16.6849 13.8836 17.5071 13.9742C17.9177 14.0194 18.2602 14.076 18.5276 14.1403C18.6597 14.1721 18.7603 14.2026 18.8332 14.2289C18.8955 14.2514 18.925 14.2664 18.9291 14.2685C19.8857 14.8208 20.2125 16.0434 19.6602 17C19.1079 17.9566 17.8847 18.2843 16.9281 17.732ZM11 14C9.89543 14 9 13.1046 9 12C9 10.8954 9.89543 10 11 10C12.1046 10 13 10.8954 13 12C13 13.1046 12.1046 14 11 14Z" fill="black"/>
</svg>
