<svg width="75" height="75" viewBox="0 0 75 75" fill="none" xmlns="http://www.w3.org/2000/svg">
<g filter="url(#filter0_d_505_1737)">
<path d="M65 31.1667H54.4333L62.9 22.7C64.2 21.4 64.2 19.3 62.9 18C61.6 16.7 59.4666 16.7 58.1666 18L45 31.1667H38.3333V24.5L51.5 11.3334C52.8 10.0334 52.8 7.90002 51.5 6.60002C50.2 5.30002 48.1 5.30002 46.8 6.60002L38.3333 15.0667V4.50002C38.3333 2.66669 36.8333 1.16669 35 1.16669C33.1666 1.16669 31.6666 2.66669 31.6666 4.50002V15.0667L23.2 6.60002C21.9 5.30002 19.8 5.30002 18.5 6.60002C17.2 7.90002 17.2 10.0334 18.5 11.3334L31.6666 24.5V31.1667H25L11.8333 18C10.5333 16.7 8.39996 16.7 7.09996 18C5.79996 19.3 5.79996 21.4 7.09996 22.7L15.5666 31.1667H4.99996C3.16663 31.1667 1.66663 32.6667 1.66663 34.5C1.66663 36.3334 3.16663 37.8334 4.99996 37.8334H15.5666L7.09996 46.3C5.79996 47.6 5.79996 49.7 7.09996 51C8.39996 52.3 10.5333 52.3 11.8333 51L25 37.8334H31.6666V44.5L18.5 57.6667C17.2 58.9667 17.2 61.1 18.5 62.4C19.8 63.7 21.9 63.7 23.2 62.4L31.6666 53.9334V64.5C31.6666 66.3334 33.1666 67.8334 35 67.8334C36.8333 67.8334 38.3333 66.3334 38.3333 64.5V53.9334L46.8 62.4C48.1 63.7 50.2 63.7 51.5 62.4C52.8 61.1 52.8 58.9667 51.5 57.6667L38.3333 44.5V37.8334H45L58.1666 51C59.4666 52.3 61.6 52.3 62.9 51C64.2 49.7 64.2 47.6 62.9 46.3L54.4333 37.8334H65C66.8333 37.8334 68.3333 36.3334 68.3333 34.5C68.3333 32.6667 66.8333 31.1667 65 31.1667Z" fill="white"/>
</g>
<defs>
<filter id="filter0_d_505_1737" x="0.666626" y="0.166687" width="74.6666" height="74.6667" filterUnits="userSpaceOnUse" color-interpolation-filters="sRGB">
<feFlood flood-opacity="0" result="BackgroundImageFix"/>
<feColorMatrix in="SourceAlpha" type="matrix" values="0 0 0 0 0 0 0 0 0 0 0 0 0 0 0 0 0 0 127 0" result="hardAlpha"/>
<feOffset dx="3" dy="3"/>
<feGaussianBlur stdDeviation="2"/>
<feComposite in2="hardAlpha" operator="out"/>
<feColorMatrix type="matrix" values="0 0 0 0 0 0 0 0 0 0 0 0 0 0 0 0 0 0 0.25 0"/>
<feBlend mode="normal" in2="BackgroundImageFix" result="effect1_dropShadow_505_1737"/>
<feBlend mode="normal" in="SourceGraphic" in2="effect1_dropShadow_505_1737" result="shape"/>
</filter>
</defs>
</svg>
