<svg width="76" height="77" viewBox="0 0 76 77" fill="none" xmlns="http://www.w3.org/2000/svg">
<g filter="url(#filter0_d_505_1612)">
<path d="M9.33328 47.5334L2.99995 41.2C0.399948 38.6 0.399948 34.3667 2.99995 31.7667L9.33328 25.4667V16.5C9.33328 12.8334 12.3333 9.83338 16 9.83338H24.9666L31.3 3.50005C33.9 0.900049 38.1333 0.900049 40.7333 3.50005L47.0333 9.83338H56C59.6666 9.83338 62.6666 12.8334 62.6666 16.5V25.4667L69 31.8C71.6 34.4 71.6 38.6334 69 41.2334L62.6666 47.5667V56.5C62.6666 60.1667 59.6666 63.1667 56 63.1667H47.0333L40.7 69.5C38.1 72.1001 33.8666 72.1001 31.2666 69.5L24.9333 63.1667H16C12.3333 63.1667 9.33328 60.1667 9.33328 56.5V47.5334ZM36 52.8334V20.1667C36 18.1334 34.1666 16.4667 32.1666 16.8667C22.9666 18.6667 16 26.7667 16 36.5C16 46.2334 22.9666 54.3334 32.1666 56.1334C34.1666 56.5334 36 54.8667 36 52.8334Z" fill="white"/>
</g>
<defs>
<filter id="filter0_d_505_1612" x="0.0499268" y="0.550049" width="77.9" height="77.9" filterUnits="userSpaceOnUse" color-interpolation-filters="sRGB">
<feFlood flood-opacity="0" result="BackgroundImageFix"/>
<feColorMatrix in="SourceAlpha" type="matrix" values="0 0 0 0 0 0 0 0 0 0 0 0 0 0 0 0 0 0 127 0" result="hardAlpha"/>
<feOffset dx="3" dy="3"/>
<feGaussianBlur stdDeviation="2"/>
<feComposite in2="hardAlpha" operator="out"/>
<feColorMatrix type="matrix" values="0 0 0 0 0 0 0 0 0 0 0 0 0 0 0 0 0 0 0.25 0"/>
<feBlend mode="normal" in2="BackgroundImageFix" result="effect1_dropShadow_505_1612"/>
<feBlend mode="normal" in="SourceGraphic" in2="effect1_dropShadow_505_1612" result="shape"/>
</filter>
</defs>
</svg>
