<svg width="159" height="102" viewBox="0 0 159 102" fill="none" xmlns="http://www.w3.org/2000/svg">
<path fill-rule="evenodd" clip-rule="evenodd" d="M0 94V38.0172C0 35.6669 1.03348 33.4356 2.82604 31.9156L38.2253 1.89835C39.6707 0.672729 41.5042 0 43.3993 0H115.601C117.496 0 119.329 0.672729 120.775 1.89835L132.91 12.1887C135.751 14.5973 134.047 19.2396 130.323 19.2396H103.119C99.8634 19.2396 96.9 17.5927 93.9493 15.9528C92.5461 15.173 91.1458 14.3948 89.7183 13.796C88.496 13.2833 87.1537 13 85.7452 13C80.0682 13 75.4661 17.6021 75.4661 23.2791C75.4661 28.9561 80.0682 33.5582 85.7452 33.5582C87.1538 33.5582 88.4963 33.2749 89.7187 32.7621C91.1467 32.163 92.5475 31.3843 93.9511 30.6041C96.9023 28.9636 99.8662 27.316 103.122 27.316H149.282C150.23 27.316 151.146 27.6524 151.869 28.2652L153.348 29.5192C156.933 32.5592 159 37.022 159 41.7225V70.8828C159 73.0919 157.209 74.8828 155 74.8828H117.165C113.91 74.8828 110.946 73.2359 107.995 71.5961C106.592 70.8162 105.192 70.038 103.764 69.4392C102.542 68.9265 101.2 68.6432 99.7913 68.6432C94.1143 68.6432 89.5122 73.2453 89.5122 78.9223C89.5122 84.5994 94.1143 89.2015 99.7913 89.2015C101.2 89.2015 102.542 88.9181 103.765 88.4053C105.193 87.8063 106.594 87.0276 107.997 86.2473C110.948 84.6068 113.912 82.9593 117.168 82.9593H155C157.209 82.9593 159 84.7501 159 86.9593V94C159 98.4183 155.418 102 151 102H80.9281H8C3.58172 102 0 98.4183 0 94ZM11 82V43.3761C11 40.9656 12.0869 38.6836 13.9586 37.1645L37.4586 18.0917C40.3966 15.7072 44.6034 15.7071 47.5414 18.0917L71.0414 37.1645C72.9131 38.6836 74 40.9656 74 43.3761C74 45.4984 75.7205 47.2189 77.8428 47.2189H96.913C100.168 47.2189 103.132 45.572 106.082 43.9321C107.486 43.1523 108.886 42.3741 110.313 41.7753C111.536 41.2626 112.878 40.9793 114.286 40.9793C119.963 40.9793 124.566 45.5814 124.566 51.2584C124.566 56.9354 119.963 61.5376 114.286 61.5376C112.878 61.5376 111.535 61.2542 110.313 60.7414C108.885 60.1423 107.484 59.3637 106.081 58.5834C103.129 56.9429 100.165 55.2954 96.9095 55.2954H78C75.7909 55.2954 74 57.0862 74 59.2954V82C74 86.4183 70.4183 90 66 90H61.1858C56.7927 90 53.2214 86.4575 53.186 82.0645L53.064 66.924C53.0286 62.531 49.4573 58.9885 45.0642 58.9885H39.75C35.3317 58.9885 31.75 62.5702 31.75 66.9885V82C31.75 86.4183 28.1683 90 23.75 90H19C14.5817 90 11 86.4183 11 82Z" fill="#55BDFE"/>
</svg>
