<svg width="72" height="75" viewBox="0 0 72 75" fill="none" xmlns="http://www.w3.org/2000/svg">
<g filter="url(#filter0_d_505_3168)">
<path d="M61.6666 1.16663C59.8333 1.16663 58.3333 2.66663 58.3333 4.49996V14.5C58.3333 16.3333 59.8333 17.8333 61.6666 17.8333C63.5 17.8333 65 16.3333 65 14.5V4.49996C65 2.66663 63.5 1.16663 61.6666 1.16663Z" fill="white"/>
<path d="M61.6666 27.8333C63.5076 27.8333 65 26.3409 65 24.5C65 22.659 63.5076 21.1666 61.6666 21.1666C59.8257 21.1666 58.3333 22.659 58.3333 24.5C58.3333 26.3409 59.8257 27.8333 61.6666 27.8333Z" fill="white"/>
<path d="M35 29.2L45.9666 18.2333C47.2666 16.9333 47.2666 14.8333 45.9666 13.5333C44.6666 12.2333 42.5666 12.2333 41.2666 13.5333L35 19.8V11.1666C35 9.33329 33.5 7.83329 31.6666 7.83329C29.8333 7.83329 28.3333 9.33329 28.3333 11.1666V19.8L22.0666 13.5333C20.7666 12.2333 18.6666 12.2333 17.3666 13.5333C16.0666 14.8333 16.0666 16.9333 17.3666 18.2333L28.3333 29.2V34.5H23.0333L12.0666 23.5333C10.7666 22.2333 8.66663 22.2333 7.36663 23.5333C6.06663 24.8333 6.06663 26.9333 7.36663 28.2333L13.6333 34.5H4.99996C3.16663 34.5 1.66663 36 1.66663 37.8333C1.66663 39.6666 3.16663 41.1666 4.99996 41.1666H13.6333L7.36663 47.4333C6.06663 48.7333 6.06663 50.8333 7.36663 52.1333C8.66663 53.4333 10.7666 53.4333 12.0666 52.1333L23.0333 41.1666H28.3333V46.4666L17.3666 57.4333C16.0666 58.7333 16.0666 60.8333 17.3666 62.1333C18.6666 63.4333 20.7666 63.4333 22.0666 62.1333L28.3333 55.8666V64.5C28.3333 66.3333 29.8333 67.8333 31.6666 67.8333C33.5 67.8333 35 66.3333 35 64.5V55.8666L41.2666 62.1333C42.5666 63.4333 44.6666 63.4333 45.9666 62.1333C47.2666 60.8333 47.2666 58.7333 45.9666 57.4333L35 46.4666V41.1666H40.3L51.2666 52.1333C52.5666 53.4333 54.6666 53.4333 55.9666 52.1333C57.2666 50.8333 57.2666 48.7333 55.9666 47.4333L49.7 41.1666H58.3333C60.1666 41.1666 61.6666 39.6666 61.6666 37.8333C61.6666 36 60.1666 34.5 58.3333 34.5H35V29.2Z" fill="white"/>
</g>
<defs>
<filter id="filter0_d_505_3168" x="0.666626" y="0.166626" width="71.3334" height="74.6666" filterUnits="userSpaceOnUse" color-interpolation-filters="sRGB">
<feFlood flood-opacity="0" result="BackgroundImageFix"/>
<feColorMatrix in="SourceAlpha" type="matrix" values="0 0 0 0 0 0 0 0 0 0 0 0 0 0 0 0 0 0 127 0" result="hardAlpha"/>
<feOffset dx="3" dy="3"/>
<feGaussianBlur stdDeviation="2"/>
<feComposite in2="hardAlpha" operator="out"/>
<feColorMatrix type="matrix" values="0 0 0 0 0 0 0 0 0 0 0 0 0 0 0 0 0 0 0.25 0"/>
<feBlend mode="normal" in2="BackgroundImageFix" result="effect1_dropShadow_505_3168"/>
<feBlend mode="normal" in="SourceGraphic" in2="effect1_dropShadow_505_3168" result="shape"/>
</filter>
</defs>
</svg>
